<svg id="Layer_1" data-name="Layer 1" xmlns="http://www.w3.org/2000/svg" viewBox="0 0 403.5 84.47"><title>Headspace logo - Brandlogos.net</title><path d="M288.18,358.25h6.75V377a13,13,0,0,1,11-6.12c6.12,0,9.71,3.38,9.71,10.13v23h-6.75v-21.1c0-4.64-1.69-5.91-5.06-5.91-2.11,0-4,1.27-5.91,3.59-1.9,2.53-2.74,5.7-2.74,9.71V404H288.4l-.21-45.79Z" transform="translate(-182.25 -341.77)" style="fill:#3a3938"/><path d="M349.38,389.48h-23c0,5.06,3,9.07,8,9.07a9.23,9.23,0,0,0,8.44-5.49l5.7,2.32c-3.38,6.33-7.17,9.07-14.35,9.07-10.76,0-15.19-9.07-15.19-16.88s4.43-16.88,15.19-16.88c10.34,0,15,8.44,15,15.83v3ZM326.59,384h15.83c-.63-4-3.38-7.17-7.81-7.17S327.44,379.77,326.59,384Z" transform="translate(-182.25 -341.77)" style="fill:#3a3938"/><path d="M402.14,370.91a11.94,11.94,0,0,1,5.06,1.27,11,11,0,0,1,3.8,2.74V358h6.75v45.79H411V400c-1.27,2.11-4.85,4.22-8.86,4.22-9.5,0-14.56-6.12-14.56-16.88C387.58,377.24,392.64,370.91,402.14,370.91Zm-7.6,16.67a13.38,13.38,0,0,0,2.32,8,7.4,7.4,0,0,0,5.91,3,7.11,7.11,0,0,0,5.91-3,12.94,12.94,0,0,0,2.32-8,12.29,12.29,0,0,0-2.32-7.81,7.4,7.4,0,0,0-5.91-3,7.11,7.11,0,0,0-5.91,3A12.72,12.72,0,0,0,394.54,387.58Z" transform="translate(-182.25 -341.77)" style="fill:#3a3938"/><path d="M443.29,376l-4.22,3.8a7,7,0,0,0-5.7-3,3,3,0,0,0-3.17,3.17,2.29,2.29,0,0,0,.84,1.9c1.06,1.06,2.11,1.69,5.06,2.74a28.16,28.16,0,0,1,5.06,2.32c2.53,1.48,3.8,3.59,4,7a9.9,9.9,0,0,1-3.17,7.39,11.9,11.9,0,0,1-8.23,3c-6.12,0-10.55-4-12.66-8.65l5.7-3.17c1.69,4,4.22,5.91,7.17,5.91s4.43-1.48,4.43-4.22a2.62,2.62,0,0,0-1.69-2.53,6.32,6.32,0,0,0-1.69-.84c-1.06-.42-3.38-1.27-4.43-1.69q-7-2.85-7-8.86a9.26,9.26,0,0,1,2.74-6.54,9.54,9.54,0,0,1,7.17-2.74A11.53,11.53,0,0,1,443.29,376Z" transform="translate(-182.25 -341.77)" style="fill:#3a3938"/><path d="M464.81,404.46c-3.8,0-7.17-1.9-8.65-4.22v16.88h-6.75V371.33h6.75v3.8c1.27-2.11,4.85-4.22,8.86-4.22,9.5,0,14.56,6.12,14.56,16.88C479.37,397.92,474.31,404.46,464.81,404.46Zm7.6-16.88a12.29,12.29,0,0,0-2.32-7.81,7.4,7.4,0,0,0-5.91-3,7.11,7.11,0,0,0-5.91,3,12.72,12.72,0,0,0-2.32,7.81,13.38,13.38,0,0,0,2.32,8,7.4,7.4,0,0,0,5.91,3,7.11,7.11,0,0,0,5.91-3A12.94,12.94,0,0,0,472.41,387.58Z" transform="translate(-182.25 -341.77)" style="fill:#3a3938"/><path d="M545.85,395.39c-2.74,5.91-7.39,9.07-14.14,9.07-4.85,0-8.65-1.69-11.4-4.85s-4-7.17-4-12,1.27-8.86,4-12a14.36,14.36,0,0,1,11.4-4.85c6.75,0,11.4,3,14.14,9.07l-5.91,2.53c-1.69-3.8-4.43-5.7-8-5.7-5.49,0-8.23,4.43-8.23,10.76,0,6.54,2.74,10.76,8.23,10.76,3.59,0,6.33-1.9,8-5.7Z" transform="translate(-182.25 -341.77)" style="fill:#3a3938"/><path d="M578.35,389.48h-23c0,5.06,3,9.07,8,9.07a9.23,9.23,0,0,0,8.44-5.49l5.7,2.32c-3.38,6.33-7.17,9.07-14.35,9.07-10.76,0-15.19-9.07-15.19-16.88s4.43-16.88,15.19-16.88c10.34,0,15,8.44,15,15.83v3ZM555.55,384h15.83c-.63-4-3.38-7.17-7.81-7.17S556.19,379.77,555.55,384Z" transform="translate(-182.25 -341.77)" style="fill:#3a3938"/><path d="M368,370.91a11.94,11.94,0,0,1,5.06,1.27,11,11,0,0,1,3.8,2.74v-3.59h6.75V404h-5.7l-1.06-3.8c-1.27,2.11-4.85,4.22-8.86,4.22-9.5,0-14.56-6.12-14.56-16.88C353.18,377.45,358.25,370.91,368,370.91Zm-7.6,16.88a13.38,13.38,0,0,0,2.32,8,7.4,7.4,0,0,0,5.91,3,7.11,7.11,0,0,0,5.91-3,12.94,12.94,0,0,0,2.32-8,12.29,12.29,0,0,0-2.32-7.81,7.4,7.4,0,0,0-5.91-3,7.11,7.11,0,0,0-5.91,3C361.2,381.67,360.36,384.41,360.36,387.79Z" transform="translate(-182.25 -341.77)" style="fill:#3a3938"/><path d="M497.31,370.91a11.94,11.94,0,0,1,5.06,1.27,11,11,0,0,1,3.8,2.74v-3.59h6.75V404h-5.7l-1.06-3.8c-1.27,2.11-4.85,4.22-8.86,4.22-9.5,0-14.56-6.12-14.56-16.88C482.54,377.45,487.6,370.91,497.31,370.91Zm-7.6,16.88a13.38,13.38,0,0,0,2.32,8,7.4,7.4,0,0,0,5.91,3,7.11,7.11,0,0,0,5.91-3,12.94,12.94,0,0,0,2.32-8,12.29,12.29,0,0,0-2.32-7.81,7.4,7.4,0,0,0-5.91-3,7.11,7.11,0,0,0-5.91,3C490.35,381.67,489.71,384.41,489.71,387.79Z" transform="translate(-182.25 -341.77)" style="fill:#3a3938"/><path d="M267.29,383.57c1.06,13.93-5.49,21.74-9.29,27.22-5.91,6.33-13.72,15-32.92,15.4-16.46.63-24.48-6.54-31.23-12.87-8.86-9.71-11.18-15.62-11.61-29.75,0-8.86,3.38-17.52,9.29-25.32,8.23-11.61,21.31-15.62,33.55-16.46,12.66-.42,22.79,5.91,29.75,12.87C263.71,364.15,266.45,372.17,267.29,383.57Z" transform="translate(-182.25 -341.77)" style="fill:#ff7e1d"/><path d="M585.31,372.17l-.63-.63a1.6,1.6,0,0,0-.84-.42,3.23,3.23,0,0,0-2.74.42l-.63.63c-.21.21-.21.63-.42.84a2.69,2.69,0,0,0,.42,2.53l.63.63a1.6,1.6,0,0,0,.84.42c.21,0,.63.21.84.21a2.4,2.4,0,0,0,1.69-.63l.63-.63c.21-.21.21-.63.42-.84A2.66,2.66,0,0,0,585.31,372.17Zm-.63,3.17c-.21.21-.42.42-.42.63-.21.21-.42.21-.63.42a1.94,1.94,0,0,1-2.11-.42c-.21-.21-.42-.42-.42-.63-.21-.21-.21-.42-.42-.63,0-.21-.21-.42-.21-.84a3.91,3.91,0,0,1,.42-1.48l.63-.63c.21-.21.42-.21.63-.42a1.94,1.94,0,0,1,2.11.42c.21.21.42.42.42.63.21.21.21.42.42.63A2.93,2.93,0,0,1,584.68,375.34Z" transform="translate(-182.25 -341.77)" style="fill:#3a3938"/><path d="M583.2,374.07a.78.78,0,0,0,.63-.21,1,1,0,0,0,.21-1.27,1.16,1.16,0,0,0-1.06-.42h-1.27v3.38h.42v-1.48h.63l.84,1.48h.63Zm-.42-.42h-.63V372.6h1.27a.78.78,0,0,1,.21.63c0,.21-.21.21-.42.21C583,373.65,583,373.65,582.78,373.65Z" transform="translate(-182.25 -341.77)" style="fill:#3a3938"/></svg>